<svg width="25" height="25" viewBox="0 0 25 25" fill="none" xmlns="http://www.w3.org/2000/svg">
<circle cx="12.5" cy="12.5" r="12" stroke="#161616"/>
<path d="M18 12C18 15.8889 13 19.2222 13 19.2222C13 19.2222 8 15.8889 8 12C8 10.6739 8.52678 9.40215 9.46447 8.46447C10.4021 7.52678 11.6739 7 13 7C14.3261 7 15.5979 7.52678 16.5355 8.46447C17.4732 9.40215 18 10.6739 18 12Z" stroke="#030303" stroke-width="1.5" stroke-linecap="round" stroke-linejoin="round"/>
<path d="M13.0002 13.6668C13.9206 13.6668 14.6668 12.9206 14.6668 12.0002C14.6668 11.0797 13.9206 10.3335 13.0002 10.3335C12.0797 10.3335 11.3335 11.0797 11.3335 12.0002C11.3335 12.9206 12.0797 13.6668 13.0002 13.6668Z" stroke="#4E4E4E" stroke-width="1.5" stroke-linecap="round" stroke-linejoin="round"/>
</svg>
