<svg width="25" height="25" viewBox="0 0 25 25" fill="none" xmlns="http://www.w3.org/2000/svg">
<path d="M18.994 10.4211C18.994 9.96632 18.772 9.56842 18.43 9.34737L13 6L7.57 9.34737C7.228 9.56842 7 9.96632 7 10.4211V16.7368C7 17.4316 7.54 18 8.2 18H17.8C18.46 18 19 17.4316 19 16.7368L18.994 10.4211ZM17.794 10.4211V10.4274L13 13.5789L8.2 10.4211L13 7.46526L17.794 10.4211ZM8.2 16.7368V11.8989L13 15.0695L17.794 11.9179L17.8 16.7368H8.2Z" fill="black"/>
<circle cx="12.5" cy="12.5" r="12" stroke="#161616"/>
</svg>
