<svg width="25" height="25" viewBox="0 0 25 25" fill="none" xmlns="http://www.w3.org/2000/svg">
<path d="M16.9144 16.0373L14.9879 14.6398C14.9056 14.5804 14.8061 14.5492 14.7046 14.5512C14.603 14.5531 14.5048 14.588 14.4248 14.6505L13.2185 15.591C11.894 14.556 10.9709 13.0925 10.6075 11.4513L11.9758 10.7679C12.0669 10.7227 12.1407 10.6492 12.1863 10.5583C12.2318 10.4674 12.2464 10.3642 12.228 10.2642L11.7968 7.92367C11.7762 7.81576 11.7185 7.71841 11.6339 7.64842C11.5492 7.57843 11.4427 7.54018 11.3329 7.54027L9.2482 7.54886C9.1422 7.54931 9.03948 7.58568 8.9568 7.65203C8.87413 7.71839 8.81638 7.8108 8.793 7.9142C7.68661 12.8004 10.7519 17.6498 15.6305 18.7545C15.7339 18.778 15.8422 18.7657 15.9377 18.7197C16.0333 18.6737 16.1104 18.5966 16.1565 18.5011L17.0622 16.6235C17.1096 16.5239 17.1208 16.4108 17.0938 16.3038C17.0668 16.1968 17.0034 16.1026 16.9144 16.0373Z" fill="black"/>
<circle cx="12.5" cy="12.5" r="12" stroke="#161616"/>
</svg>
